<?xml version="1.0" encoding="UTF-8"?>
<svg id="Livello_2" data-name="Livello 2" xmlns="http://www.w3.org/2000/svg" xmlns:xlink="http://www.w3.org/1999/xlink" viewBox="0 0 449.79 630.2">
  <defs>
    <style>
      .cls-1 {
        fill: url(#Sfumatura_senza_nome_15);
      }
    </style>
    <linearGradient id="Sfumatura_senza_nome_15" data-name="Sfumatura senza nome 15" x1="85.27" y1="616.68" x2="424.83" y2="-137.99" gradientUnits="userSpaceOnUse">
      <stop offset="0" stop-color="#ffec15"/>
      <stop offset="1" stop-color="#aa7b00"/>
    </linearGradient>
  </defs>
  <g id="Livello_2-2" data-name="Livello 2">
    <path class="cls-1" d="M222.85,626.81s-48.62-26.5-88.21-70.3c-39.59-43.8-40.17-76.26-40.17-76.26,0,0-13.02-46.65,26.05-95.63,0,0,23.32-29.16,37.9-40.62l88.24-81.44h-113.83s-26.3,3.89-27.67-23.52c0,0-3.3-21.19,27.79-21.96h155.36s18.79-27.41,19.76-38.87H27.22S0,181.7,0,154.69s39.27-21.19,39.27-21.19H306.24s-4.31-14.97-17.78-32.85H121.95s-23.32,1.55-24.88-22.55c-1.55-24.1,31.62-22.55,31.62-22.55h116.36l-31.23-24.98s-8.21-15.45,4.64-26.34c12.85-10.88,35.14,2.59,35.14,2.59,0,0,66.34,43.67,92.2,93.43,25.85,49.76,18.46,84.61,18.46,84.61,0,0-2.07,46.39-56.5,95.37l-94.59,77.16h115.58s24.1,.06,23.58,23.65c-.52,23.58-26.69,21.25-26.69,21.25H172.74s-17.36,26.17-17.36,32.39H425.29s24.5,0,24.5,22.29-21.52,22.81-21.52,22.81H150.45s7.26,27.99,19.44,38.61h151.09s23.45,.32,23.06,23.26c-.39,22.94-25.27,22.35-25.27,22.35h-102.63l27.99,24.78s13.02,16.04,8.84,27.89c-4.18,11.86-17.78,13.48-17.78,13.48,0,0-5.75,.46-12.34-3.38Z"/>
  </g>
</svg>