<svg width="43" height="37" viewBox="0 0 43 37" fill="none" xmlns="http://www.w3.org/2000/svg">
<path fill-rule="evenodd" clip-rule="evenodd" d="M16.487 0L12.4767 9.30675L12.6995 10.4417L6.68394 23.6074L5.90415 23.9479L0 37H10.5829L14.5933 28.8282H19.7176L16.2642 37H27.0699L29.426 31.6656L30.6347 28.9291L33.7873 21.7914L34.7565 19.7485L35.0907 18.8405L39.101 9.76074H30.6347H30.0777L29.4093 8.39877L29.5207 7.4908L26.1788 0H16.487ZM17.9352 2.15644L3.45337 34.8436H9.46891L13.3679 26.6718H23.0596L19.7176 34.8436H25.7332L35.6477 11.9172H30.0777L26.1788 20.316H15.5959L21.3886 6.92331L25.7332 16.3436L28.5181 10.1012L24.9534 2.15644H17.9352ZM23.8394 18.046H19.0492L21.3886 12.4847L23.8394 18.046Z" fill="#FFBA08"/>
<path fill-rule="evenodd" clip-rule="evenodd" d="M39.658 34.8436L33.7873 21.7914L34.7565 19.7485L37.5415 26.1043L38.4326 26.5583L43 37H32.1943L29.426 31.6656L30.6347 28.9291L33.7873 34.8436H39.658Z" fill="#FFBA08"/>
</svg>
