<svg width="42" height="42" viewBox="0 0 42 42" fill="none" xmlns="http://www.w3.org/2000/svg">
<path d="M20.6771 36.2901L17.3398 31.7949L21.867 25.7012H24.5109L34.2669 12.5641L31.198 8.63423L15.6651 29.5433L13.722 26.9271L28.9624 6.41027H23.9704L11.226 23.5698L8.8662 20.3891L19.2468 6.41027H16.6066L10.3201 14.8718H8.97438L6.87101 17.7044L4.03046 13.8786L11.1138 4.8077H30.2404L37.3238 13.8786L20.6771 36.2901ZM37.079 19.5838L41.3538 13.8302L31.8029 1.60257H27.7364L26.4824 9.53674e-07H14.8718L13.6178 1.60257H9.5509L0 13.8302L4.87581 20.3927L3.90986 21.6871L11.9832 32.5481H13.9023L20.6771 41.6667L27.452 32.5481H29.371L38.069 20.8454L37.0834 19.5838H37.079Z" fill="#2AD4F8"/>
</svg>
