<svg width="42" height="42" viewBox="0 0 42 42" fill="none" xmlns="http://www.w3.org/2000/svg">
<path d="M18.5751 33.4229L34.1097 12.5065L31.0548 8.59422L15.594 29.4098L13.659 26.8048L28.8295 6.38086H23.8604L11.1749 23.4604L4.01037 13.8154L11.0636 4.78564H30.1005L37.1541 13.8154L20.5823 36.1252L18.5751 33.4229ZM36.9109 19.4935L41.1645 13.7667L31.657 1.59521H27.6092L26.3609 0H14.8036L13.5553 1.59521H9.50748L0 13.7667L4.85344 20.2991L3.89232 21.5872L11.9282 32.3988H13.8385L20.5823 41.4756L27.3244 32.3988H29.2347L37.8927 20.7498L36.9117 19.4935H36.9109Z" fill="#2AD4F8"/>
</svg>
