<svg width="42" height="36" viewBox="0 0 42 36" fill="none" xmlns="http://www.w3.org/2000/svg">
<path d="M29.5164 33.12H23.2164L27.8305 25.124L26.9305 23.5652L32.256 14.3464H34.056L31.9788 10.7464L19.062 33.12H14.1336L29.5164 6.48L28.476 4.68H26.3988L11.0196 31.32L8.5536 27.0508L21.4704 4.68H17.3124L15.0084 8.67276L15.9084 10.2312L10.116 20.2684H4.6368L3.3264 18L12.0564 2.88H29.5164L38.2464 18L29.5164 33.12ZM39.4632 14.3464H38.0232L33.9624 7.31196L34.6788 6.06636L31.1796 -1.43051e-06H10.3932L0 18L1.3104 20.2684H2.7504L7.6104 28.6852L6.8904 29.9308L10.3932 36H31.1796L41.5728 18L39.4632 14.3464Z" fill="#E3EDF8"/>
</svg>
