<svg width="45" height="42" viewBox="0 0 45 42" fill="none" xmlns="http://www.w3.org/2000/svg">
<path d="M35.2123 26.1634L38.3372 18.2592L28.2886 8.89161e-05L26.6633 12.2094L33.4599 21.0577L24.0377 32.2L39.5219 35.7017L40.2979 33.8229L35.2123 26.1634ZM9.15102 26.1634L6.02613 18.2592L16.0751 8.89161e-05L17.7 12.2094L10.9034 21.0574L20.3256 32.2L4.84145 35.7017L4.06543 33.8229L9.15102 26.1634Z" fill="#360850"/>
<path d="M44.3631 14.8909C43.8044 15.6203 43.0472 16.4811 42.0472 17.3387C41.1444 18.1164 40.266 18.6928 39.5233 19.1164C38.8459 21.8142 38.1723 24.5086 37.4987 27.2068C36.6689 27.7307 35.7071 28.2758 34.6204 28.7966C33.5478 29.3105 32.534 29.7101 31.617 30.0223C31.0059 31.9042 30.3913 33.7826 29.7802 35.661C28.7178 35.9599 27.44 36.2408 25.9821 36.4005C24.5513 36.5603 23.2666 36.5707 22.1798 36.5186C21.093 36.5707 19.8118 36.5603 18.3813 36.4005C16.923 36.2408 15.6453 35.9599 14.5828 35.661C13.9718 33.7826 13.3572 31.9042 12.7461 30.0223C11.826 29.7101 10.8156 29.3105 9.74273 28.7966C8.65248 28.2758 7.69453 27.7307 6.86435 27.2064C6.19111 24.5086 5.5137 21.8142 4.84011 19.1164C4.09396 18.6928 3.21864 18.1164 2.31277 17.3387C1.31627 16.4811 0.559009 15.6203 0 14.8909C0.0624979 12.193 0.121523 9.49867 0.184021 6.80085C2.77074 9.02994 5.19114 10.2139 6.82268 10.8667C10.0899 12.1652 12.9787 12.4257 16.5446 12.7451C17.6768 12.8458 18.7185 12.9048 19.6455 12.9395L14.4651 21.0573L22.0791 32.9909L29.6934 21.0573L24.5165 12.9465C25.4891 12.9156 26.6036 12.8527 27.8189 12.7451C31.3844 12.4257 34.2731 12.1652 37.5407 10.8667C39.1723 10.2139 41.5927 9.02994 44.1794 6.80085C44.2384 9.49902 44.3006 12.193 44.3631 14.8909Z" fill="#501894"/>
<path d="M22.0807 32.564L19.6121 28.6957L14.7372 21.0571L19.6121 13.4185L22.0807 9.5509L24.5494 13.4185L29.4208 21.0571L24.5494 28.6957L22.0807 32.564ZM30.0562 13.4185L22.0807 0.918895L14.1053 13.4185L9.23047 21.0571L14.1053 28.6957L22.0807 41.1953L30.0562 28.6961L34.9275 21.0575L30.0562 13.4185Z" fill="#E81880"/>
<path d="M22.0791 6.1272L12.5537 21.0576L22.0791 35.9873L31.6045 21.0576L22.0791 6.1272ZM22.0791 10.6413L28.7247 21.0576L22.0791 31.4739L15.4335 21.0576L22.0791 10.6413Z" fill="#FFE8F8"/>
<path d="M27.3412 21.0577L22.0796 29.304L16.8173 21.0577L22.0796 12.8115L27.3412 21.0577ZM27.8079 25.2739L30.4977 21.0577L27.8079 16.8415L30.454 13.308H25.5531L22.0796 7.86371L18.6058 13.308H13.7049L16.3513 16.8415L13.6611 21.0577L16.3513 25.2735L13.7049 28.8071H18.6058L22.0796 34.2517L25.5531 28.8071H30.454L27.8079 25.2739Z" fill="#FFE8F8"/>
</svg>
