<svg width="44" height="41" viewBox="0 0 44 41" fill="none" xmlns="http://www.w3.org/2000/svg">
<path d="M34.3576 25.5283L37.4066 17.8159L27.6019 3.09426e-05L26.0161 11.913L32.6477 20.5461L23.4542 31.4183L38.5622 34.835L39.3194 33.0015L34.3576 25.5283ZM8.92894 25.5283L5.8799 17.8159L15.6846 3.09426e-05L17.2701 11.9126L10.6384 20.5461L19.8323 31.4183L4.72398 34.835L3.9668 33.0015L8.92894 25.5283Z" fill="#360850"/>
<path d="M43.2865 14.5293C42.7411 15.2408 42.0025 16.081 41.0268 16.9177C40.1457 17.6766 39.2889 18.239 38.5639 18.6523C37.9033 21.2846 37.246 23.9136 36.5885 26.5459C35.7791 27.0575 34.8407 27.5894 33.78 28.0976C32.7335 28.5989 31.7442 28.9885 30.8498 29.2935C30.2536 31.1297 29.6539 32.9625 29.0577 34.7953C28.0207 35.0866 26.7743 35.361 25.3514 35.5169C23.9553 35.6727 22.7021 35.6829 21.6417 35.6321C20.581 35.6829 19.3312 35.6727 17.9355 35.5169C16.5126 35.361 15.2659 35.0866 14.2288 34.7953C13.6329 32.9625 13.0333 31.1297 12.4367 29.2935C11.5393 28.9885 10.5534 28.5989 9.50657 28.0976C8.44279 27.5894 7.50775 27.0572 6.69806 26.5459C6.04082 23.9136 5.3802 21.2846 4.72296 18.6523C3.99458 18.239 3.14085 17.6766 2.25663 16.9177C1.28432 16.081 0.545778 15.2408 0 14.5293C0.0613196 11.8967 0.118914 9.26805 0.179895 6.63571C2.70382 8.81069 5.06513 9.96594 6.65741 10.6028C9.84535 11.8699 12.664 12.124 16.1433 12.4357C17.2477 12.5339 18.2641 12.5915 19.1686 12.6254L14.114 20.5461L21.5435 32.19L28.973 20.5461L23.9217 12.6322C24.8703 12.6017 25.9578 12.5407 27.1436 12.4357C30.6229 12.124 33.4415 11.8699 36.6295 10.6028C38.2217 9.96594 40.583 8.81069 43.107 6.63571C43.1646 9.26805 43.2255 11.897 43.2865 14.5293Z" fill="#501894"/>
<path d="M21.5455 31.7735L19.1368 27.9992L14.3803 20.546L19.1368 13.0927L21.5455 9.31906L23.9539 13.0927L28.7074 20.546L23.9539 27.9992L21.5455 31.7735ZM29.3273 13.0927L21.5455 0.896596L13.7633 13.0927L9.00684 20.546L13.7633 27.9992L21.5455 40.1953L29.3273 27.9992L34.0804 20.546L29.3273 13.0927Z" fill="#E81880"/>
<path d="M30.9096 13.0929H23.9544L28.7075 20.5461L23.9544 27.9993H30.9096L35.8727 20.5461L30.9096 13.0929ZM19.1369 13.0929L14.3804 20.5461L19.1369 27.9993H12.3782L7.41504 20.5461L12.3782 13.0929H19.1369Z" fill="#E85098"/>
<path d="M21.5432 5.97851L12.249 20.5465L21.5432 35.1138L30.8373 20.5461L21.5432 5.97851ZM21.5432 10.3827L28.0275 20.5461L21.5432 30.7096L15.0589 20.5465L21.5432 10.3827Z" fill="#FFE8F8"/>
<path d="M21.5439 14.4481L17.6533 20.5462L21.5439 26.6443L25.4341 20.5462L21.5439 14.4481Z" fill="#501894"/>
<path d="M21.5433 17.6665L19.7061 20.5461L21.5433 23.4258L23.3805 20.5461L21.5433 17.6665Z" fill="#FFE8F8"/>
<path d="M26.5863 20.5704L21.4524 28.6164L16.3178 20.5704L21.4524 12.5243L26.5863 20.5704ZM27.0416 24.6842L29.6662 20.5704L27.0416 16.4565L29.6235 13.0088H24.8416L21.4524 7.69666L18.0629 13.0088H13.281L15.8632 16.4565L13.2383 20.5704L15.8632 24.6839L13.281 28.1317H18.0629L21.4524 33.4441L24.8416 28.1317H29.6235L27.0416 24.6842Z" fill="#FFE8F8"/>
</svg>
