<svg width="48" height="42" viewBox="0 0 48 42" fill="none" xmlns="http://www.w3.org/2000/svg">
<path d="M47.4425 14.1124C46.8487 14.8874 46.0438 15.8027 44.9809 16.7142C44.0214 17.5409 43.0877 18.1535 42.2983 18.6037C41.5783 21.4709 40.8623 24.3351 40.1464 27.2026C39.2643 27.7595 38.2421 28.3393 37.0869 28.8928C35.9469 29.4387 34.869 29.8634 33.8947 30.1956C33.2451 32.1958 32.5919 34.1924 31.9424 36.1886C30.8131 36.5063 29.455 36.8052 27.9054 36.975C26.3845 37.1448 25.019 37.1555 23.8639 37.1005C22.7088 37.1555 21.347 37.1448 19.8265 36.975C18.2765 36.8052 16.9184 36.5063 15.7891 36.1886C15.1396 34.1924 14.4864 32.1958 13.8369 30.1956C12.8589 29.8634 11.7849 29.4387 10.6446 28.8928C9.48576 28.3393 8.46719 27.7595 7.58516 27.2026C6.86957 24.3351 6.14956 21.4709 5.4336 18.6037C4.64052 18.1535 3.71015 17.5409 2.74693 16.7142C1.68813 15.8027 0.883231 14.8874 0.289062 14.1124C0.355491 11.2445 0.418229 8.38109 0.484658 5.51358C3.23407 7.88287 5.80634 9.14096 7.54087 9.83514C11.0136 11.215 14.0841 11.4918 17.8742 11.8313C19.0777 11.9383 20.1849 12.0011 21.1702 12.0384L15.6636 20.6667L23.7569 33.3509L31.8501 20.6667L26.3476 12.0454C27.3813 12.0125 28.566 11.9461 29.8576 11.8313C33.6474 11.4918 36.7179 11.215 40.191 9.83514C41.9252 9.14096 44.4978 7.88287 47.2472 5.51358C47.31 8.38109 47.376 11.2445 47.4425 14.1124Z" fill="#501894"/>
<path d="M23.7567 0L10.5713 20.6671L23.7567 41.3335L36.9421 20.6667L23.7567 0ZM23.7567 8.85718L31.2912 20.6667L23.7567 32.4763L16.2222 20.6671L23.7567 8.85718Z" fill="#E85098"/>
<path d="M23.728 5.35163L13.6035 21.2211L23.728 37.0898L33.8525 21.2207L23.728 5.35163ZM23.728 11.3025L29.5188 21.2207L23.728 31.0928L18.0321 21.2211L23.728 11.3025Z" fill="#FFE8F8"/>
</svg>
