<svg width="43" height="41" viewBox="0 0 43 41" fill="none" xmlns="http://www.w3.org/2000/svg">
<path d="M32.0364 36.7489L23.7331 30.7149C24.2425 29.6 24.6916 28.4638 25.0724 27.3168C25.5109 26.0167 25.8813 24.7023 26.1627 23.3773C26.572 21.4787 26.8324 19.5695 26.9321 17.6639H24.9161C24.0256 20.5099 22.3546 24.4993 19.1278 28.4602C16.1995 32.0543 13.0507 34.3304 10.8177 35.6875L13.1718 28.4388C14.9568 27.3881 17.3789 25.6961 19.7152 23.0816C21.7491 20.8126 23.103 18.533 24.0077 16.6451L23.067 13.7492C22.0522 15.142 20.6239 16.7805 18.6715 18.3335C16.1105 20.3745 13.6135 21.493 11.8895 22.1092L3.80776 16.2391H17.1367L21.254 3.56198L25.3716 16.2391H38.7009L27.9184 24.0719L32.0364 36.7489ZM34.3621 25.4218L33.7035 23.3915L42.5083 16.9942L41.3364 13.3895H30.4514L29.3543 10.0127H26.3476L23.0923 7.46568e-08H19.416L16.1607 10.0127H13.154L12.0569 13.3895H1.17189L0 16.9942L8.80486 23.3915L8.14625 25.4218L10.5791 27.1922L7.45487 36.8059L11.3485 39.6341L19.5268 33.6928L21.254 34.9466L22.9815 33.6928L32.0646 40.2896L35.3986 37.871L31.9292 27.1922L34.3621 25.4218Z" fill="#0070C4"/>
</svg>
