<svg width="43" height="40" viewBox="0 0 43 40" fill="none" xmlns="http://www.w3.org/2000/svg">
<path d="M21.5598 28.5695L15.306 33.1172C17.2958 31.3721 18.8439 29.7339 19.9819 28.4273C21.0787 27.1676 22.6204 25.3805 24.2279 22.749C25.4894 20.6843 26.3434 18.8321 26.9065 17.4551H24.6081L24.6045 17.4414C23.2131 19.1647 21.362 21.1538 18.9621 23.1049C17.2515 24.4953 15.5943 25.5963 14.1043 26.465L14.9776 23.7846L4.32011 16.0472H17.4884L21.5598 3.52095L25.6313 16.0472H38.7995L28.142 23.7846L32.2159 36.314L21.5598 28.5695ZM31.4542 24.861L42.563 16.7934L41.405 13.2313H27.6774L23.3761 4.40516e-07H19.7436L15.4423 13.2313H1.71468L0.556641 16.7934L11.6654 24.861L7.92377 36.3714L11.771 39.1658L21.5598 32.0525L32.2427 39.8135L35.5373 37.4235L31.4542 24.861Z" fill="#0070C4"/>
</svg>
