<svg width="44" height="41" viewBox="0 0 44 41" fill="none" xmlns="http://www.w3.org/2000/svg">
<path d="M26.318 33.0565C25.5512 30.9566 24.9974 28.8541 24.5254 26.7546C23.8496 23.749 23.5275 21.4523 23.302 19.7209C22.9789 17.24 22.6683 14.035 22.5761 10.2582L21.9866 8.45306L21.3974 10.2582C21.3053 14.035 20.9943 17.24 20.6712 19.7209C20.4457 21.4523 20.1236 23.749 19.4478 26.7546C18.9758 28.8541 18.422 30.9566 17.6552 33.0565L11.7398 37.3555L11.7358 37.3525C13.5033 34.1855 14.9591 30.8892 16.0763 27.5247C16.8984 25.0596 17.5465 22.5618 18.0145 20.0484C18.3461 18.2945 18.593 16.5369 18.7514 14.7793H16.8759C16.6821 15.3984 16.4879 16.0174 16.2937 16.6364C16.0034 17.4559 15.6714 18.303 15.2915 19.1715C14.1341 21.8189 12.7933 24.0629 11.4834 25.92L10.3614 25.1079L11.3194 22.1601L3.93931 16.7985H14.6135L15.7595 13.3054H18.8583L21.9866 3.6847L25.1149 13.3054H28.2141L29.3597 16.7985H40.0346L32.6538 22.1601L33.6118 25.1079L32.4972 25.9145C31.1888 24.0585 29.8497 21.8164 28.6927 19.1715C28.3129 18.303 27.9812 17.4559 27.6909 16.6364C27.4963 16.0174 27.3025 15.3984 27.1087 14.7793H25.2328C25.3949 16.5369 25.6381 18.2945 25.9698 20.0484C26.4377 22.5618 27.0862 25.0596 27.9079 27.5247C29.0244 30.8873 30.4795 34.1818 32.2455 37.3474L32.2337 37.3555L26.318 33.0565ZM33.0296 28.1253L35.5463 26.2977L34.8646 24.1974L43.9732 17.5797L42.7609 13.8508H31.5005L30.3656 10.3577H27.2557L23.8879 1.13613e-06H20.0853L16.7175 10.3577H13.6076L12.4727 13.8508H1.21227L0 17.5797L9.10857 24.1974L8.4269 26.2977L10.9436 28.1253V28.129L7.71207 38.074L11.7398 41L20.1999 34.8536L21.9866 36.1506L23.7737 34.8536L32.2337 41L36.2611 38.074L33.0296 28.129V28.1253Z" fill="#0070C4"/>
</svg>
