<svg width="43" height="41" viewBox="0 0 43 41" fill="none" xmlns="http://www.w3.org/2000/svg">
<path d="M31.7402 35.5849H25.5245L34.8771 24.4379L37.4106 28.8261L31.7402 35.5849ZM18.9877 33.2641L9.1902 21.5907L11.5419 17.522L19.6646 27.2031V22.3918L13.1896 14.6714L15.58 10.5288L19.6646 15.3947V10.5826L17.2278 7.67815L18.9799 4.64144H23.4435L25.1957 7.67815L22.7589 10.5826V15.3947L26.8434 10.5288L29.2338 14.6714L22.7589 22.3918V27.2031L30.8816 17.522L33.2333 21.5907L23.4358 33.2641H18.9877ZM10.6832 35.5849L5.01284 28.8261L7.54633 24.4379L16.899 35.5849H10.6832ZM37.7549 21.2275H36.5945L28.9592 8.00654L29.6477 7.1908L25.4974 -7.56383e-05H16.9261L12.7758 7.1908L13.4643 8.00654L5.82897 21.2275H4.66859L0 29.3111L9.03936 41H33.3841L42.4235 29.3111L37.7549 21.2275Z" fill="#F89420"/>
</svg>
