<svg width="43" height="41" viewBox="0 0 43 41" fill="none" xmlns="http://www.w3.org/2000/svg">
<path d="M33.6591 35.5849H8.76472L4.38275 29.9184L9.78121 20.5704L21.2121 34.1928L32.643 20.5704L38.0414 29.9184L33.6591 35.5849ZM21.2121 16.7048L15.7633 10.2117L18.9803 4.64151H23.4439L26.6604 10.2113L21.2121 16.7048ZM14.1168 13.0628L21.2121 21.5184L28.3074 13.0631L30.996 17.719L21.2121 29.3792L11.4278 17.719L14.1168 13.0628ZM42.4238 29.3111L37.7552 21.2272H36.5948L28.9603 8.00583L29.6476 7.19047L25.4974 1.78814e-07H16.9264L12.7761 7.19047L13.4639 8.00583L5.82897 21.2272H4.66859L0 29.3111L9.03973 41H33.3844L42.4238 29.3111Z" fill="#F89420"/>
</svg>
