<svg width="42" height="41" viewBox="0 0 42 41" fill="none" xmlns="http://www.w3.org/2000/svg">
<path d="M29.8265 20.1668L25.3776 26.8221L37.5161 27.8391L41.6467 20.1668L37.5161 12.4944L25.3776 13.5114L29.8265 20.1668ZM11.8205 20.1668L16.2691 26.8221L4.13057 27.8391L0 20.1668L4.13057 12.4944L16.2691 13.5114L11.8205 20.1668Z" fill="#501894"/>
<path d="M35.3735 26.0141L38.8631 17.0611L28.1769 1.43378L25.8271 10.2081L33.4166 20.2302L22.895 32.8513L40.1862 36.8176L41.053 34.6893L35.3735 26.0141ZM6.27123 26.0141L2.78132 17.0611L13.1308 1.0769L15.8176 10.2081L8.22776 20.2302L18.7497 32.8513L1.4586 36.8176L0.591797 34.6893L6.27123 26.0141Z" fill="#360850"/>
<path d="M20.8221 13.6251L16.6865 20.1072L20.8221 26.5894L24.9574 20.1072L20.8221 13.6251Z" fill="#501894"/>
<path d="M20.823 17.0464L18.8701 20.1074L20.823 23.1685L22.776 20.1074L20.823 17.0464Z" fill="#FFE8F8"/>
<path d="M20.8237 10.7135L26.8557 20.1666L20.8237 29.6197L14.7917 20.1666L20.8237 10.7135ZM29.8807 26.1377L33.6904 20.1666L29.9566 14.3143L36.0243 6.20837L25.8207 7.83179L20.8237 -7.77245e-05L15.8267 7.83179L5.62305 6.20837L11.6907 14.3143L7.95662 20.1666L11.7663 26.1377L5.62305 34.3409L15.9505 32.6955L20.8237 40.3333L25.6968 32.6955L36.0243 34.3409L29.8807 26.1377Z" fill="#FFE8F8"/>
</svg>
