<svg width="42" height="40" viewBox="0 0 42 40" fill="none" xmlns="http://www.w3.org/2000/svg">
<path d="M29.5796 20.0002L25.1675 26.6006L37.2057 27.6091L41.3021 20.0002L37.2057 12.3913L25.1675 13.3998L29.5796 20.0002ZM11.7225 20.0002L16.1343 26.6006L4.09607 27.6091L0 20.0002L4.09607 12.3913L16.1343 13.3998L11.7225 20.0002Z" fill="#501894"/>
<path d="M20.6502 10.625L26.6323 20L20.6502 29.375L14.6681 20L20.6502 10.625ZM29.6323 25.9218L33.4106 20L29.7077 14.1961L35.7252 6.15714L25.6059 7.76679L20.6502 -9.53674e-07L15.6945 7.76679L5.5752 6.15714L11.5927 14.1961L7.88948 20L11.6681 25.9218L5.5752 34.0571L15.8173 32.425L20.6502 40L25.4831 32.425L35.7252 34.0571L29.6323 25.9218Z" fill="#FFE8F8"/>
</svg>
