<svg width="44" height="42" viewBox="0 0 44 42" fill="none" xmlns="http://www.w3.org/2000/svg">
<path d="M38.2967 28.8739C36.3022 25.6941 34.5328 22.3373 33.0229 18.8282C31.5952 15.5488 30.4054 12.144 29.432 8.65266C29.3239 8.26329 29.2243 7.87392 29.1205 7.48498C27.9438 6.85723 26.6761 6.37268 25.3436 6.05686C25.3696 7.13844 25.4172 8.22479 25.4864 9.31026C25.7417 13.1045 26.2435 16.9159 27.0309 20.6928C28.1341 26.0748 29.8127 31.3962 32.0148 36.5406C30.3925 37.6737 28.5754 38.5476 26.6199 39.1018C26.1743 36.5661 25.8109 34.0309 25.4691 31.4913C25.0581 28.2077 24.686 24.9197 24.3962 21.6316C24.2404 19.9876 24.089 18.3436 23.9635 16.6996C23.8251 15.0561 23.7083 13.4116 23.6001 11.7719C23.4703 9.75155 23.3492 7.72682 23.2627 5.70643C22.7262 5.65019 22.1811 5.62423 21.6316 5.62423C21.0822 5.62423 20.5371 5.65019 20.0006 5.70643C19.9141 7.72682 19.793 9.75155 19.6632 11.7719C19.555 13.4116 19.4382 15.0561 19.2998 16.6996C19.1743 18.3436 19.0229 19.9876 18.8671 21.6316C18.5773 24.9197 18.2052 28.2077 17.7942 31.4913C17.4524 34.0266 17.0933 36.5661 16.6434 39.1018C14.6922 38.5476 12.8708 37.6737 11.2485 36.5406C13.4506 31.3918 15.1292 26.0791 16.2324 20.6928C17.0198 16.9159 17.5216 13.1045 17.7769 9.31026C17.8461 8.22479 17.8937 7.13844 17.9197 6.05686C16.5871 6.37268 15.3195 6.85723 14.1428 7.48498C14.0389 7.87392 13.9394 8.26329 13.8313 8.65266C12.8578 12.144 11.6681 15.5488 10.2404 18.8282C8.73053 22.3325 6.96106 25.6902 4.96662 28.8739C4.00185 26.6545 3.46106 24.2058 3.46106 21.6316C3.46106 11.595 11.5946 3.46106 21.6316 3.46106C31.6687 3.46106 39.8022 11.595 39.8022 21.6316C39.8022 24.2058 39.2614 26.6545 38.2967 28.8739ZM42.848 17.4135C42.3461 17.3356 41.8918 17.0328 41.6279 16.5742L35.8609 6.58467C35.6143 6.16069 35.5667 5.6636 35.7052 5.2089C31.9197 1.95983 27.0049 8.17151e-07 21.6316 8.17151e-07C16.2583 8.17151e-07 11.3436 1.95983 7.55809 5.2089C7.69654 5.6636 7.64895 6.16069 7.40235 6.58467L1.63535 16.5742C1.37145 17.0328 0.917181 17.3356 0.415327 17.4135C0.142768 18.7763 0 20.1867 0 21.6316C0 31.0198 5.98331 39.0148 14.3461 42C14.6489 41.4506 15.2243 41.1006 15.8646 41.1006H27.3986C28.0389 41.1006 28.6143 41.4506 28.9172 42C37.28 39.0148 43.2633 31.0198 43.2633 21.6316C43.2633 20.1867 43.1205 18.7763 42.848 17.4135" fill="#B46030"/>
</svg>
