<svg width="42" height="42" viewBox="0 0 42 42" fill="none" xmlns="http://www.w3.org/2000/svg">
<path d="M23.2119 37.8389C23.3529 37.717 23.4951 37.5971 23.6344 37.4723C24.2502 36.935 24.8289 36.3522 25.4076 35.7781C25.9655 35.1746 26.5277 34.5835 27.0402 33.9383C29.1441 31.4253 30.8139 28.4906 31.8473 25.3786C32.8889 22.2745 33.2857 19.0335 33.1575 15.8885C33.0873 14.2434 32.8765 12.6186 32.5458 11.0356C31.4298 9.65917 30.0823 8.4853 28.5571 7.56812C28.5571 7.57184 28.5613 7.5801 28.5613 7.58424C29.1234 10.3205 29.297 13.1022 29.0242 15.7889C28.7514 18.4718 28.0281 21.0589 26.8666 23.3616C24.585 27.9619 20.4228 31.4711 15.8182 33.6783C15.252 33.9466 14.6568 34.2033 14.1401 34.3806L13.2928 34.6497C13.0034 34.7485 12.7017 34.8187 12.4041 34.8973C11.9866 35.0043 11.5675 35.0981 11.1463 35.1808C6.42567 32.0779 3.30666 26.7377 3.30666 20.6666C3.30666 11.0786 11.079 3.30666 20.6666 3.30666C30.2543 3.30666 38.0266 11.0786 38.0266 20.6666C38.0266 29.3892 31.5927 36.6072 23.2119 37.8389ZM20.6666 -6.48502e-07C9.25286 -6.48502e-07 0 9.25245 0 20.6666C0 32.0804 9.25286 41.3333 20.6666 41.3333C32.0804 41.3333 41.3333 32.0804 41.3333 20.6666C41.3333 9.25245 32.0804 -6.48502e-07 20.6666 -6.48502e-07Z" fill="#B46030"/>
</svg>
