<svg width="42" height="42" viewBox="0 0 42 42" fill="none" xmlns="http://www.w3.org/2000/svg">
<path d="M23.4768 38.2738C23.6198 38.1505 23.7644 38.0288 23.9057 37.903C24.5287 37.3595 25.114 36.77 25.6993 36.1889C26.2637 35.5743 26.8323 34.9806 27.3507 34.3243C29.4787 31.7865 31.1678 28.8182 32.213 25.67C33.2665 22.5303 33.6679 19.2525 33.5383 16.0709C33.4672 14.407 33.254 12.7639 32.9195 11.1627C31.7907 9.7705 30.4278 8.58315 28.885 7.65502C28.885 7.6592 28.8892 7.66756 28.8892 7.67174C29.4578 10.4352 29.6334 13.2489 29.3575 15.9664C29.0815 18.6839 28.3499 21.3011 27.1751 23.6256C24.8673 28.283 20.6573 31.8283 15.9999 34.0609C15.4271 34.3368 14.8251 34.596 14.3025 34.7758L13.4454 35.0433C13.1528 35.1479 12.8476 35.2189 12.5465 35.2942C12.1209 35.4029 11.6953 35.497 11.2681 35.581C10.1309 34.8331 9.08694 33.9555 8.15462 32.9709C8.17176 32.9663 8.18974 32.9622 8.20688 32.9571C9.61163 32.56 10.9996 32.0541 12.3291 31.4395C13.667 30.8249 14.9296 30.0975 16.1002 29.324C17.2876 28.538 18.4205 27.6768 19.4825 26.7194C20.5486 25.762 21.552 24.7168 22.4425 23.5504C23.3288 22.3839 24.0897 21.0628 24.6332 19.7082C25.7662 16.9949 26.0714 14.1227 25.9376 11.3926C25.8456 9.53219 25.5112 7.72609 25.022 5.98689C24.3238 5.79875 23.6089 5.65242 22.8773 5.56044C23.1532 7.50033 23.2284 9.44858 23.011 11.3299C22.7393 13.7004 22.0746 15.9831 20.883 17.852C20.3103 18.7968 19.6288 19.6204 18.8303 20.3772C18.0234 21.1297 17.1203 21.807 16.1629 22.4174C15.2055 23.0278 14.1812 23.5671 13.1402 24.0353C12.0783 24.5078 11.0289 24.8966 9.96699 25.1809C8.06474 25.701 6.1583 25.9133 4.08546 25.9543C3.60551 24.3543 3.34463 22.6599 3.34463 20.9039C3.34463 11.2062 11.2062 3.34463 20.9039 3.34463C30.6017 3.34463 38.4632 11.2062 38.4632 20.9039C38.4632 29.7275 31.9546 37.0288 23.4768 38.2738ZM20.9039 1.19209e-06C9.35869 1.19209e-06 0 9.35911 0 20.9039C0 32.4488 9.35869 41.8079 20.9039 41.8079C32.4488 41.8079 41.8079 32.4488 41.8079 20.9039C41.8079 9.35911 32.4488 1.19209e-06 20.9039 1.19209e-06" fill="#B46030"/>
</svg>
